<?xml version="1.0" encoding="utf-8"?>
<!-- Generator: Adobe Illustrator 16.0.0, SVG Export Plug-In . SVG Version: 6.00 Build 0)  -->
<!DOCTYPE svg PUBLIC "-//W3C//DTD SVG 1.1//EN" "http://www.w3.org/Graphics/SVG/1.1/DTD/svg11.dtd">
<svg version="1.1" id="Calque_1" xmlns="http://www.w3.org/2000/svg" xmlns:xlink="http://www.w3.org/1999/xlink" x="0px" y="0px"
	 width="300px" height="219.471px" viewBox="0 0 300 219.471" enable-background="new 0 0 300 219.471" xml:space="preserve">
<path fill="#FFFFFF" d="M238.406,112.212V81.665c0-4.778-3.861-8.639-8.639-8.639h-26.303c4.248-15.589-4.922-31.66-20.51-35.906
	c-9.266-2.558-19.207-0.338-26.591,5.887c-2.462-14.961-14.865-25.288-31.178-25.288c-17.47,0-31.61,15.154-31.61,33.782
	c0,7.771,2.51,15.347,7.191,21.525H72.293c-4.778,0-8.638,3.86-8.638,8.639v30.548c0,4.778,3.86,8.639,8.638,8.639h4.054v76.687
	c0,4.777,3.861,8.638,8.639,8.638h132.137c4.779,0,8.639-3.86,8.639-8.638v-76.687h4.006c4.777,0.049,8.639-3.812,8.688-8.542
	C238.406,112.261,238.406,112.261,238.406,112.212z M175.186,47.544c9.844,0,17.807,7.963,17.807,17.809
	c0,2.654-0.578,5.308-1.736,7.673h-34.458v-8.157C157.57,55.218,165.484,47.737,175.186,47.544L175.186,47.544z M105.063,51.598
	c0-12.307,9.073-22.296,20.124-22.296c11.873,0,20.125,8.06,20.125,19.545V73.17h-26.013
	C110.468,69.696,104.773,61.057,105.063,51.598z M75.141,84.511h70.123v24.806H75.141V84.511z M87.833,120.851h57.479v73.839H87.833
	V120.851z M214.229,194.69H156.75v-73.839h57.479V194.69z M226.824,109.366H156.75V84.56h70.123L226.824,109.366z"/>
</svg>
